<svg width="44.45mm" height="27.05mm" version="1.1" viewBox="0 0 44.45 27.05" xmlns="http://www.w3.org/2000/svg">
 <g transform="translate(-65.68 -111.8)" fill="#007bff" stroke-width=".2646">
  <path d="m69.3 138.7c-0.09799-0.098-0.1782-5.099-0.1782-11.11v-10.94h3.969v18.26h14.82c11.65 0 14.83-0.0706 14.86-0.3307 0.096-0.679 0.1449-2.287 0.1808-5.953l0.037-3.77h3.713l-0.141 13.89-18.54 0.0679c-10.2 0.0374-18.62-0.0123-18.72-0.1102z"/>
  <path d="m66.6 128.3c-0.506-0.7911-0.9201-1.509-0.9201-1.596 0-0.1302 17.7-11.93 21.33-14.22l1.085-0.6843 6.588 4.375c8.659 5.75 15.45 10.39 15.45 10.54 0 0.0697-0.4281 0.7716-0.9514 1.56l-0.9514 1.433-10-6.729c-5.503-3.701-10.07-6.729-10.15-6.729-0.07777 0-4.735 3.034-10.35 6.743l-10.21 6.743z"/>
 </g>
</svg>
