<svg width="82.91mm" height="37.55mm" version="1.1" viewBox="0 0 82.91 37.55" xmlns="http://www.w3.org/2000/svg">
 <g transform="translate(-45 -111.8)">
  <path d="m69.06 137c-0.09161-0.0919-0.1665-4.767-0.1665-10.39v-10.22h3.71v17.07h13.85c10.89 0 13.86-0.0658 13.89-0.3092 0.0902-0.6347 0.1355-2.138 0.169-5.565l0.0341-3.524h3.471l-0.0654 6.492-0.0658 6.492-17.33 0.0627c-9.532 0.0345-17.41-0.0119-17.5-0.103z" fill="#007bff" stroke-width=".2473"/>
  <path d="m66.54 127.2c-0.473-0.7394-0.86-1.411-0.86-1.492 0-0.1218 16.54-11.15 19.93-13.29l1.014-0.6397 6.159 4.09c8.094 5.375 14.44 9.708 14.44 9.856 0 0.0643-0.4003 0.7212-0.8894 1.458l-0.8894 1.339-9.352-6.29c-5.144-3.459-9.412-6.29-9.484-6.29-0.07268 0-4.426 2.836-9.674 6.303l-9.541 6.303z" fill="#007bff" stroke-width=".2473"/>
  <path d="m49.52 148.2c-0.3427-0.6562-0.9911-1.914-1.441-2.795-0.4497-0.8808-0.8328-1.587-0.8513-1.57-0.04555 0.0421-0.4798 4.386-0.4798 4.799 0 0.2225 0.1011 0.3642 0.3149 0.4413 0.2263 0.0817-0.01984 0.1159-0.8746 0.1214l-1.189 8e-3 0.4836-0.2196c0.6021-0.2734 0.5891-0.2247 1.059-3.988 0.2071-1.658 0.4181-3.055 0.4689-3.105 0.05078-0.0493 0.7764 1.25 1.613 2.889 0.8361 1.638 1.559 3.019 1.607 3.067 0.04752 0.0483 0.7584-1.25 1.58-2.885 0.8213-1.635 1.548-2.99 1.615-3.01 0.067-0.0206 0.3235 1.476 0.57 3.325 0.3995 2.996 0.4804 3.385 0.7443 3.581 0.407 0.3022 1.02 0.2754 1.44-0.0628 0.2305-0.1857 0.8762-1.417 1.881-3.586 0.8415-1.817 1.557-3.328 1.589-3.357 0.03255-0.0298 0.5218 0.9487 1.087 2.173 2.061 4.464 2.212 4.741 2.704 4.961 0.4456 0.1991 0.4375 0.2011-0.86 0.209-1.298 8e-3 -1.307 8e-3 -0.9888-0.2253l0.3211-0.2334-0.4154-0.9912-0.4154-0.9913-1.536-0.0355-1.536-0.0356-0.3831 0.9246c-0.4645 1.121-0.4714 1.267-0.06826 1.442 0.2389 0.1034-0.2925 0.1363-2.204 0.1368-1.64 3.5e-4 -2.409-0.0386-2.204-0.1131 0.2557-0.0923 0.3148-0.2116 0.3148-0.6359 0-0.5467-0.4164-4.674-0.4771-4.728-0.03149-0.0289-2.147 4.17-2.642 5.243l-0.2028 0.4396zm11.29-2.104c-0.05335-0.1208-0.3533-0.833-0.6666-1.582l-0.5697-1.363-0.6765 1.551c-0.3721 0.8532-0.677 1.565-0.6777 1.582-6.85e-4 0.0177 0.6037 0.0319 1.343 0.0319 1.224 0 1.336-0.0199 1.247-0.2198zm19.66 3.016c-0.9634-0.3052-2.027-1.332-2.321-2.24-0.4592-1.418-0.0858-3.002 0.9612-4.076 0.548-0.5623 1.703-0.9252 2.966-0.932 1.778-9e-3 2.953 0.6155 3.737 1.988 0.4109 0.7195 0.4956 2.076 0.1887 3.024-0.3042 0.9394-1.355 1.931-2.378 2.244-0.8538 0.261-2.316 0.2576-3.154-8e-3zm3.019-0.4162c1.107-0.4809 1.745-1.584 1.751-3.025 0.0058-1.393-0.4024-2.305-1.299-2.903-1.606-1.071-3.685-0.6397-4.637 0.961-0.4225 0.7104-0.4477 2.898-0.04186 3.632 0.3289 0.5944 0.9882 1.197 1.549 1.417 0.6619 0.2588 1.987 0.2183 2.678-0.0819zm6.422 0.5086c-0.6049-0.1701-1.392-0.7952-1.694-1.346-0.2198-0.4007-0.2721-0.8798-0.3331-3.05-0.07164-2.552-0.07516-2.575-0.3871-2.615-0.1732-0.0223-0.3148-0.0927-0.3148-0.1569 0-0.0639 0.5037-0.1168 1.119-0.1168 0.653 0 1.119 0.0521 1.119 0.1256 0 0.0689-0.1247 0.1256-0.2772 0.1256-0.4037 0-0.4456 0.3061-0.3964 2.898 0.04883 2.577 0.1709 3.007 1.006 3.541 0.3536 0.2264 0.6275 0.2801 1.428 0.2801 0.8633 0 1.055-0.0437 1.492-0.3432 0.8492-0.5814 0.9606-1.051 0.9155-3.864-0.03898-2.432-0.0415-2.449-0.3541-2.489-0.1732-0.0223-0.3149-0.0927-0.3149-0.1569 0-0.0639 0.4723-0.1168 1.049-0.1168 0.6064 0 1.049 0.0528 1.049 0.1256 0 0.0689-0.1237 0.1256-0.2749 0.1256-0.4855 0-0.5646 0.3999-0.5646 2.854 0 2.206-0.02141 2.406-0.3148 2.927-0.1802 0.3198-0.5655 0.715-0.9009 0.9243-0.4925 0.307-0.7495 0.3718-1.609 0.406-0.5627 0.0226-1.212-0.0132-1.443-0.0773zm7.162-3e-3c-0.6659-0.1794-0.7957-0.3544-0.7957-1.074 0-0.3673 0.0627-0.7028 0.1399-0.7456 0.0796-0.0439 0.14 0.0635 0.14 0.2501 0 0.4245 0.3495 1.026 0.6918 1.191 0.4291 0.2062 1.299 0.1494 1.784-0.1164 0.479-0.2622 0.7088-0.8631 0.5489-1.435-0.047-0.1655-0.7133-0.8379-1.482-1.494-0.769-0.6564-1.462-1.344-1.541-1.529-0.4218-0.9958 0.1486-2.042 1.273-2.334 0.2607-0.0673 0.8361-0.087 1.279-0.0423l0.8046 0.0807-5.3e-4 0.6431-5.2e-4 0.6432-0.2791-0.4107c-0.3517-0.5178-0.8177-0.7119-1.452-0.6051-0.6294 0.106-1.066 0.592-1.066 1.187 0 0.4093 0.1408 0.5725 1.53 1.773 1.627 1.405 1.772 1.633 1.652 2.593-0.0753 0.6039-0.4517 1.07-1.111 1.378-0.4118 0.1922-1.49 0.2172-2.115 0.0487zm-32.32-0.1853 0.4548-0.1774v-6.549l-0.4198-0.0753c-0.979-0.1756-0.276-0.295 1.738-0.295 1.187 0 2.257-0.0346 2.379-0.076 0.1839-0.0634 0.2195 0.0271 0.2103 0.5339-0.0064 0.3355-0.04483 0.5252-0.08606 0.4216-0.1593-0.4002-0.5153-0.5024-1.749-0.5024h-1.233v3.14h1.123c1.091 0 1.128-0.01 1.289-0.3454l0.1662-0.3454 0.04886 0.4739c0.02683 0.2605 0.0262 0.6562-2e-3 0.8791-0.04398 0.3531-0.06631 0.373-0.1733 0.1542-0.1896-0.3876-0.3473-0.4356-1.438-0.4378l-1.014-3e-3v2.892l0.4548 0.2488 0.4548 0.2489-1.329-5e-3c-1.268-5e-3 -1.308-0.0128-0.8746-0.1819zm6.136 8e-3c0.2386-0.0932 0.4747-0.2652 0.5248-0.3821 0.1453-0.3399 0.1049-5.795-0.04558-6.15-0.08449-0.1994-0.2444-0.3222-0.4198-0.3222-0.1558 0-0.2833-0.0563-0.2833-0.1256 0-0.155 2.748-0.1598 3.634-8e-3 0.7644 0.1323 1.481 0.7738 1.623 1.453 0.1871 0.8951-0.4114 1.945-1.298 2.278-0.4353 0.1633-0.4544 0.1928-0.245 0.3807 0.1248 0.112 0.4825 0.52 0.7948 0.9067 0.8548 1.058 1.517 1.649 2.138 1.908l0.5597 0.2334-0.5992 3e-3c-1.189 7e-3 -1.705-0.3581-3.218-2.267-0.4693-0.5921-0.9988-1.139-1.177-1.216-0.3162-0.1366-0.314-0.14 0.09624-0.149 1.455-0.0318 2.079-0.5967 1.992-1.803-0.07542-1.054-0.4453-1.355-1.768-1.44l-0.9937-0.0636v3.084c0 1.696 0.04086 3.179 0.09088 3.296 0.05004 0.1169 0.2861 0.2889 0.5247 0.3821 0.4017 0.157 0.3301 0.1695-0.9655 0.1695-1.296 0-1.367-0.0129-0.9655-0.1695zm31.05 0.0344c0.611-0.3 0.6297-0.4022 0.6297-3.467 0-3.034-0.0634-3.422-0.5646-3.422-0.1513 0-0.275-0.0563-0.275-0.1256 0-0.0746 0.5131-0.1256 1.259-0.1256 0.6927 0 1.259 0.0524 1.259 0.1168 0 0.064-0.1401 0.1349-0.3113 0.157-0.4993 0.0642-0.6638 0.5474-0.6662 1.956l-3e-3 1.287h4.758v-1.39c0-1.475-0.1207-1.876-0.5646-1.876-0.1513 0-0.2749-0.0563-0.2749-0.1256 0-0.074 0.4897-0.1256 1.189-0.1256 1.144 0 1.552 0.1422 0.8563 0.299-0.1856 0.0413-0.3706 0.2008-0.4178 0.359-0.1144 0.3831-0.1124 5.797 3e-3 6.065 0.0494 0.1169 0.2861 0.2889 0.5247 0.3821 0.4017 0.157 0.33 0.1695-0.9655 0.1695-1.295 0-1.367-0.0128-0.9654-0.1695 0.2386-0.0932 0.4747-0.2652 0.5247-0.3821 0.0494-0.117 0.0906-0.8015 0.0906-1.521v-1.308h-4.758l3e-3 1.225c3e-3 1.544 0.0738 1.776 0.6131 1.987 0.4046 0.1581 0.3434 0.1698-0.8949 0.1709-1.039 6.8e-4 -1.268-0.0294-1.049-0.1363zm8.553-0.0354c0.2403-0.0938 0.5305-0.2906 0.6449-0.4372 0.1145-0.1467 0.8914-1.735 1.726-3.53 0.8695-1.869 1.56-3.196 1.616-3.106 0.0534 0.0866 0.7686 1.597 1.588 3.356 0.8195 1.759 1.565 3.28 1.657 3.379 0.0915 0.0992 0.3557 0.2542 0.5866 0.3445 0.3828 0.1498 0.2968 0.1647-0.9756 0.1692-1.302 6e-3 -1.375-8e-3 -1.084-0.1905 0.3923-0.2467 0.3904-0.2832-0.0719-1.4l-0.3832-0.9246-1.536 0.0357-1.536 0.0354-0.4153 0.9913-0.4154 0.9912 0.3211 0.2334c0.3185 0.2314 0.3112 0.2333-0.9188 0.2284-1.168-6e-3 -1.215-0.0149-0.8031-0.1756zm5.058-2.865c-0.6926-1.748-1.174-2.856-1.242-2.857-0.0464-4.1e-4 -0.2438 0.3808-0.4382 0.847-0.1945 0.4663-0.486 1.145-0.648 1.507l-0.2944 0.6594h1.342c1.014 0 1.327-0.0384 1.28-0.1571zm4.755 2.858 0.4548-0.1774v-6.543h-1.059c-1.102 0-1.6 0.1358-1.6 0.4365 0 0.0972-0.0632 0.2116-0.1399 0.2542-0.0863 0.0476-0.14-0.1557-0.14-0.5264v-0.6039h6.717l-0.0111 0.628c-8e-3 0.3454-0.0452 0.5432-0.0887 0.4395-0.2174-0.531-0.4755-0.6279-1.671-0.6279h-1.168v3.183c0 2.875 0.0235 3.202 0.2448 3.375 0.1346 0.1053 0.3392 0.2226 0.4548 0.2607 0.1154 0.0385-0.3882 0.0717-1.119 0.0745-1.264 6e-3 -1.307-5e-3 -0.8746-0.1724zm5.437 8e-3c0.246-0.0961 0.4728-0.2982 0.5229-0.466 0.0481-0.163 0.089-1.541 0.0898-3.063 2e-3 -2.303-0.035-2.813-0.2159-3.046-0.1199-0.1536-0.3088-0.2792-0.4198-0.2792-0.111 0-0.202-0.0563-0.202-0.1256 0-0.0745 0.4898-0.1256 1.189-0.1256 0.6997 0 1.19 0.0515 1.19 0.1256 0 0.0688-0.1237 0.1256-0.275 0.1256-0.5007 0-0.5646 0.3873-0.5646 3.422 0 3.065 0.0185 3.167 0.6297 3.467 0.2188 0.1074-0.0104 0.1372-1.049 0.1364-1.238-7.4e-4 -1.3-0.0128-0.8949-0.1709z" stroke-width=".1326"/>
 </g>
</svg>
