<svg width="32.81mm" height="20.11mm" version="1.1" viewBox="0 0 32.81 20.11" xmlns="http://www.w3.org/2000/svg">
 <path d="m2.381 16.11v-4l-0.6817 0.1303c-0.7493 0.1432-1.7-0.6342-1.7-1.391 0-0.2356 0.5358-0.806 1.191-1.268l1.191-0.8392v-1.939c0-2.29 0.3316-2.92 1.468-2.791 0.7274 0.08278 0.7897 0.1792 0.913 1.412 0.09953 0.9953 0.2306 1.302 0.5292 1.237 0.2183-0.04703 2.361-1.313 4.762-2.812 4.302-2.687 6.364-3.849 6.832-3.849 0.2332 0 8.621 5.548 13.47 8.913 1.346 0.9331 2.447 1.818 2.447 1.966 0 0.7388-0.5957 1.322-1.269 1.243-0.6333-0.07443-0.7226 0.0232-0.8926 0.9756-0.1039 0.5821-0.1958 2.398-0.2042 4.035l-0.01525 2.977h-28.05zm25.56 1.792c0.01654-0.02277 0.097-1.772 0.1788-3.886l0.1488-3.845-5.338-3.468c-2.936-1.908-5.606-3.604-5.933-3.771-0.7406-0.3767-0.5153-0.4944-7.049 3.684l-5.171 3.307-0.0086 2.807c-0.0047 1.544 0.06639 3.354 0.158 4.023l0.1666 1.215 1.487 0.1123c1.297 0.09794 21.28-0.0694 21.36-0.1789z" fill="#007bff" stroke-width=".2646"/>
</svg>
