<svg width="104" height="104" display="block" shape-rendering="auto" preserveAspectRatio="xMidYMid" version="1.1" viewBox="0 0 52 52" xmlns="http://www.w3.org/2000/svg">
 <g transform="translate(-24,-24)">
  <rect x="46.5" y="24" width="7" height="12" rx="3.5" ry="6" fill="#007bff">
   <animate attributeName="opacity" begin="-1.0912698412698412s" dur="1.1904761904761905s" keyTimes="0;1" repeatCount="indefinite" values="1;0"/>
  </rect>
 </g>
 <g transform="rotate(30 82.78 -6.785)">
  <rect x="46.5" y="24" width="7" height="12" rx="3.5" ry="6" fill="#007bff">
   <animate attributeName="opacity" begin="-0.9920634920634919s" dur="1.1904761904761905s" keyTimes="0;1" repeatCount="indefinite" values="1;0"/>
  </rect>
 </g>
 <g transform="rotate(60 58.78 17.22)">
  <rect x="46.5" y="24" width="7" height="12" rx="3.5" ry="6" fill="#007bff">
   <animate attributeName="opacity" begin="-0.8928571428571427s" dur="1.1904761904761905s" keyTimes="0;1" repeatCount="indefinite" values="1;0"/>
  </rect>
 </g>
 <g transform="rotate(90,50,26)">
  <rect x="46.5" y="24" width="7" height="12" rx="3.5" ry="6" fill="#007bff">
   <animate attributeName="opacity" begin="-0.7936507936507935s" dur="1.1904761904761905s" keyTimes="0;1" repeatCount="indefinite" values="1;0"/>
  </rect>
 </g>
 <g transform="rotate(120 44.93 31.07)">
  <rect x="46.5" y="24" width="7" height="12" rx="3.5" ry="6" fill="#007bff">
   <animate attributeName="opacity" begin="-0.6944444444444443s" dur="1.1904761904761905s" keyTimes="0;1" repeatCount="indefinite" values="1;0"/>
  </rect>
 </g>
 <g transform="rotate(150 41.22 34.78)">
  <rect x="46.5" y="24" width="7" height="12" rx="3.5" ry="6" fill="#007bff">
   <animate attributeName="opacity" begin="-0.5952380952380951s" dur="1.1904761904761905s" keyTimes="0;1" repeatCount="indefinite" values="1;0"/>
  </rect>
 </g>
 <g transform="rotate(180,38,38)">
  <rect x="46.5" y="24" width="7" height="12" rx="3.5" ry="6" fill="#007bff">
   <animate attributeName="opacity" begin="-0.49603174603174593s" dur="1.1904761904761905s" keyTimes="0;1" repeatCount="indefinite" values="1;0"/>
  </rect>
 </g>
 <g transform="rotate(210 34.78 41.22)">
  <rect x="46.5" y="24" width="7" height="12" rx="3.5" ry="6" fill="#007bff">
   <animate attributeName="opacity" begin="-0.39682539682539675s" dur="1.1904761904761905s" keyTimes="0;1" repeatCount="indefinite" values="1;0"/>
  </rect>
 </g>
 <g transform="rotate(240 31.07 44.93)">
  <rect x="46.5" y="24" width="7" height="12" rx="3.5" ry="6" fill="#007bff">
   <animate attributeName="opacity" begin="-0.29761904761904756s" dur="1.1904761904761905s" keyTimes="0;1" repeatCount="indefinite" values="1;0"/>
  </rect>
 </g>
 <g transform="rotate(-90,26,50)">
  <rect x="46.5" y="24" width="7" height="12" rx="3.5" ry="6" fill="#007bff">
   <animate attributeName="opacity" begin="-0.19841269841269837s" dur="1.1904761904761905s" keyTimes="0;1" repeatCount="indefinite" values="1;0"/>
  </rect>
 </g>
 <g transform="rotate(-60 17.22 58.78)">
  <rect x="46.5" y="24" width="7" height="12" rx="3.5" ry="6" fill="#007bff">
   <animate attributeName="opacity" begin="-0.09920634920634919s" dur="1.1904761904761905s" keyTimes="0;1" repeatCount="indefinite" values="1;0"/>
  </rect>
 </g>
 <g transform="rotate(-30 -6.785 82.78)">
  <rect x="46.5" y="24" width="7" height="12" rx="3.5" ry="6" fill="#007bff">
   <animate attributeName="opacity" begin="0s" dur="1.1904761904761905s" keyTimes="0;1" repeatCount="indefinite" values="1;0"/>
  </rect>
 </g>
</svg>
